:SAMPLES-PER-SECOND 30
:FULLY-SPECIFIED
:DEGREES
268
root  -5.31355 39.0688 -15.1023 0.653351 79.8077 3.74417
RightUpLeg  -22.4595 -5.07678 -1.17118
RightLeg  5.07118 -4.12009 3.54733
RightFoot  -3.91139 -0.536173 7.83154
RightToes  0.00048216 0.542163 -0.142577
Spine  13.5712 -0.648572 1.06911
Spine1  6.74253 -0.351339 -1.34172
HEad  7.91101 6.58315 -0.881104
LeftShoulder1  9.45228 -13.9097 -47.3751
LeftArm  -1.42839 13.8217 -25.9171
LeftForeArm  24.061 -14.8328 -5.95876
LeftHand  -0.25398 0.0180481 5.50724
RightShoulder  5.83931 10.25 36.4624
RightArm  7.81209 -7.4264 36.8298
RightForeArm  -0.877081 21.2819 5.21733
RightHand  -1.29662 3.48549 -17.1557
LeftUpLeg  12.6854 8.06794 -1.82659
LeftLeg  13.4441 19.4838 0.0866545
LeftFoot  -24.5085 -0.243252 -3.38392
LeftToes  1.06243e-005 4.65856e-005 -8.18503e-006
269
root  -4.34802 38.7971 -14.9579 4.47577 80.9458 7.70535
RightUpLeg  -22.7536 -5.06369 -1.88046
RightLeg  4.29646 -4.41427 3.59005
RightFoot  -3.67911 -0.568847 8.08587
RightToes  0.00048216 0.542163 -0.142577
Spine  14.0834 -0.782144 0.640905
Spine1  7.25433 -0.614447 -1.08288
HEad  7.38408 5.7684 -1.07417
LeftShoulder1  9.47201 -13.9015 -47.4986
LeftArm  -1.06178 10.8624 -25.3552
LeftForeArm  23.1052 -15.8764 -5.62975
LeftHand  -0.25398 0.0180481 5.50724
RightShoulder  5.83971 10.2727 36.3972
RightArm  3.73273 -9.12798 36.8898
RightForeArm  3.58472 16.3242 6.52909
RightHand  -1.25699 3.29681 -16.9854
LeftUpLeg  14.436 8.00264 -1.83729
LeftLeg  13.402 18.3306 -0.340209
LeftFoot  -25.0671 -0.238532 -3.22794
LeftToes  1.06243e-005 4.65856e-005 -8.18503e-006
270
root  -3.25421 38.5331 -14.7874 7.01277 82.3774 10.202
RightUpLeg  -23.4874 -6.14066 -1.64629
RightLeg  6.27631 -3.96438 3.01157
RightFoot  -2.37712 -0.561041 6.99899
RightToes  0.00048216 0.542163 -0.142577
Spine  14.4536 -0.978011 0.734081
Spine1  7.72221 -0.989633 -0.495505
HEad  7.02347 4.91127 -1.28166
LeftShoulder1  9.48077 -13.875 -47.6169
LeftArm  -1.03992 8.36918 -25.1828
LeftForeArm  21.8164 -16.9693 -5.24907
LeftHand  -0.25398 0.0180481 5.50724
RightShoulder  5.83677 10.2788 36.3581
RightArm  -2.15784 -11.3001 36.6081
RightForeArm  10.7379 11.5494 7.42343
RightHand  -1.08058 2.58739 -15.8851
LeftUpLeg  16.5115 7.8855 -1.29274
LeftLeg  12.7931 16.5758 -0.847659
LeftFoot  -25.7415 -0.337083 -3.89094
LeftToes  1.06243e-005 4.65856e-005 -8.18503e-006
271
root  -2.05723 38.319 -14.6075 3.19543 84.234 5.74689
RightUpLeg  -25.2355 -8.70765 0.277496
RightLeg  10.5726 -3.25948 1.72982
RightFoot  0.395513 -0.390157 3.87215
RightToes  0.00048216 0.542163 -0.142577
Spine  14.4595 -1.42936 2.07172
Spine1  7.93199 -1.51857 0.166002
HEad  6.74435 4.0526 -1.60712
LeftShoulder1  9.4587 -13.8355 -47.6142
LeftArm  -1.2635 6.74092 -25.4168
LeftForeArm  20.1914 -18.4974 -4.73043
LeftHand  -0.25398 0.0180481 5.50724
RightShoulder  5.81411 10.2365 36.3245
RightArm  -6.17878 -13.9897 36.2283
RightForeArm  16.1699 8.05526 7.03081
RightHand  -0.855617 1.61872 -14.3135
LeftUpLeg  18.1573 7.87898 0.0959423
LeftLeg  12.0844 14.6615 -0.763734
LeftFoot  -26.0149 -0.420025 -4.47525
LeftToes  1.06243e-005 4.65856e-005 -8.18503e-006
272
root  -0.761219 38.1351 -14.4425 -14.6631 85.8506 -12.9604
RightUpLeg  -27.4261 -11.9754 3.42744
RightLeg  15.8329 -1.98826 -0.0501612
RightFoot  3.06464 -0.0902839 0.844173
RightToes  0.00048216 0.542163 -0.142577
Spine  14.502 -2.14835 4.72683
Spine1  7.78972 -2.05543 0.399397
HEad  6.18631 3.40522 -2.13064
LeftShoulder1  9.43062 -13.7795 -47.6269
LeftArm  -2.02203 6.16828 -25.7891
LeftForeArm  18.8927 -21.0902 -4.14959
LeftHand  -0.25398 0.0180481 5.50724
RightShoulder  5.80159 10.2088 36.3189
RightArm  -8.26888 -16.76 35.7495
RightForeArm  18.2885 5.99484 6.18372
RightHand  -0.701201 0.789195 -13.2731
LeftUpLeg  19.1379 8.42468 2.36313
LeftLeg  12.5514 12.4754 0.218097
LeftFoot  -25.9435 -0.469667 -4.8685
LeftToes  1.06243e-005 4.65856e-005 -8.18503e-006
273
root  0.615236 37.9633 -14.2946 -43.2888 86.2391 -41.8867
RightUpLeg  -28.5852 -13.1067 5.32235
RightLeg  21.005 -1.90578 -1.11072
RightFoot  3.65686 0.0851952 -0.46609
RightToes  0.00048216 0.542163 -0.142577
Spine  15.1727 -2.99526 7.76475
Spine1  7.59668 -2.51504 0.317176
HEad  5.34621 3.29884 -2.84477
LeftShoulder1  9.45228 -13.7377 -47.855
LeftArm  -4.05764 6.55535 -25.9142
LeftForeArm  19.1404 -24.6388 -4.20561
LeftHand  -0.25398 0.0180481 5.50724
RightShoulder  5.83104 10.2445 36.4202
RightArm  -9.83358 -18.8896 35.0325
RightForeArm  18.1285 4.81026 5.56097
RightHand  -0.632141 0.278882 -12.988
LeftUpLeg  19.9171 9.6019 5.0869
LeftLeg  14.8051 9.21832 1.62358
LeftFoot  -25.6405 -0.7707 -7.35672
LeftToes  1.06243e-005 4.65856e-005 -8.18503e-006
274
root  2.029 37.8309 -14.1323 -62.1089 85.7689 -60.4808
RightUpLeg  -28.4321 -13.3213 5.94541
RightLeg  25.5891 -1.9527 -1.23857
RightFoot  1.98995 0.158347 -1.25515
RightToes  0.00048216 0.542163 -0.142577
Spine  16.2358 -3.79604 10.1112
Spine1  7.68332 -2.9279 0.525598
HEad  4.83096 3.78492 -3.73598
LeftShoulder1  9.50666 -13.7314 -48.1517
LeftArm  -6.30316 7.56018 -25.9425
LeftForeArm  20.1028 -27.9297 -4.93623
LeftHand  -0.25398 0.0180481 5.50724
RightShoulder  5.85737 10.2619 36.5543
RightArm  -10.99 -20.0086 34.2134
RightForeArm  16.9407 4.17743 5.17652
RightHand  -0.590023 -0.0462711 -12.821
LeftUpLeg  19.855 9.83981 7.11559
LeftLeg  19.5912 6.95382 3.13505
LeftFoot  -23.6735 -1.19496 -12.5492
LeftToes  1.06243e-005 4.65856e-005 -8.18503e-006
